<svg xmlns="http://www.w3.org/2000/svg" viewBox="0 0 320 240"><defs><linearGradient id="face" x2="1" y2="1"><stop stop-color="#73737d"/><stop offset=".5" stop-color="#303037"/><stop offset="1" stop-color="#141418"/></linearGradient></defs><ellipse cx="164" cy="209" rx="73" ry="8" fill="#08080a"/><g transform="translate(96 25) rotate(-12 64 90)"><path d="M16 0h96l16 16v160l-16 16H16L0 176V16Z" fill="url(#face)" stroke="#b3b3bd"/><path d="M8 20h112M8 170h112M16 7h96M16 185h96" fill="none" stroke="#868690"/><path d="M18 20v150m92-150v150" stroke="#08080a"/><rect x="34" y="50" width="60" height="92" rx="10" fill="#16161b" stroke="#6b6b75"/><path d="m64 67 18 27-18 28-18-28Z" fill="none" stroke="#dedee4"/><path d="M54 92h20M59 82l-2 20m13-20-2 20" stroke="#8e8e99"/><path d="M35 152h58" stroke="#9999a5" stroke-dasharray="1 4"/></g><g fill="none" stroke="#7d7d87" opacity=".5"><path d="M58 82H42v78h16M265 68h15v78h-15M243 192h28"/><circle cx="265" cy="168" r="3"/></g></svg>
